<svg width="125" height="132" viewBox="0 0 125 132" fill="none" xmlns="http://www.w3.org/2000/svg">
<path d="M63.83 1.2C60.73 2.2 55.83 4.15 52.83 5.5C51.68 6.05 50.88 6.35 38.83 11.25C33.88 13.25 27.58 15.85 24.83 17C22.08 18.15 18.68 19.5 17.28 20.05C12.48 21.9 8.42995 26.45 7.17995 31.5C6.82995 32.75 6.22995 36.5496 5.77995 39.9996C4.97995 46.4996 3.97995 53.7496 2.82995 62.2496C2.42995 64.9996 1.77995 69.8496 1.37995 72.9996C0.97995 76.1496 0.42995 80.0996 0.17995 81.7996C-0.62005 87.4496 1.27995 92.8996 5.22995 96.6496C6.07995 97.3996 7.97995 98.9996 9.52995 100.2C11.08 101.35 19.88 108.15 29.08 115.25C38.28 122.4 47.13 128.9 48.78 129.7C51.33 131 52.18 131.2 55.78 131.15C59.68 131.1 60.53 130.9 65.83 128.5C66.38 128.25 69.38 127 72.48 125.75C75.53 124.5 80.63 122.45 83.73 121.2C86.78 119.9 90.58 118.35 92.08 117.75C110.98 110.05 111.08 110 113.53 107.2C116.78 103.55 117.58 100.8 119.28 87.2496C120.03 81.5996 120.73 76.4996 122.33 64.7496C124.98 45.5996 124.98 44.2496 122.73 39.5996C121.53 37.0996 118.88 34.4496 113.33 30.2C112.23 29.35 103.93 22.95 94.83 15.95C85.78 8.95 77.73 2.85 77.03 2.4C75.53 1.45 70.28 0 68.53 0C67.88 0.05 65.78 0.550005 63.83 1.2ZM72.33 9.65C75.08 11.25 79.08 14.7 79.08 15.45C79.03 15.9 78.83 17.8 78.58 19.75C78.13 22.8 76.58 34.9996 76.58 35.3996C76.58 35.5996 72.93 37.1496 65.08 40.2996C61.38 41.7996 57.88 43.2496 57.33 43.4996C56.78 43.7496 54.88 44.5496 53.08 45.2496C51.28 45.9496 49.38 46.7496 48.83 46.9996C48.28 47.2496 45.38 48.4496 42.33 49.6996C36.48 52.0496 28.98 55.0996 20.83 58.4996C13.48 61.5496 12.13 61.9996 11.83 61.4996C11.68 61.2496 11.88 58.8496 12.28 56.1496C12.73 53.4496 13.53 47.6496 14.08 43.2496C15.33 33.6 15.78 31.9 17.33 30.25C18.08 29.4 21.88 27.55 27.68 25.2C32.68 23.15 37.28 21.25 37.83 21C38.38 20.75 40.28 19.95 42.08 19.25C43.88 18.55 45.78 17.75 46.33 17.5C46.88 17.25 50.48 15.75 54.33 14.2C58.18 12.65 62.58 10.85 64.08 10.25C67.13 8.95 70.78 8.7 72.33 9.65ZM94.13 26.3C102.48 32.75 102.73 32.95 107.38 36.5996C109.58 38.3496 112.13 40.2996 113.03 40.9996C115.68 43.0496 116.18 45.3996 115.33 51.8496C114.93 54.7996 114.28 59.9496 113.88 63.2496C113.43 66.5496 112.98 69.7996 112.83 70.4996C112.68 71.1996 112.23 74.4496 111.78 77.7496C109.28 97.4496 108.98 98.9996 107.53 100.95C106.53 102.3 105.38 102.95 99.73 105.3L98.13 106L89.03 98.8496C84.03 94.9496 79.48 91.3996 78.93 90.9496C78.08 90.2496 77.98 89.7996 78.28 87.6996C78.78 84.4996 79.83 76.2996 80.78 68.4996C81.23 65.0496 81.68 61.5496 81.83 60.7496C81.98 59.8996 82.43 56.5496 82.88 53.2496C83.28 49.9496 83.93 44.8996 84.33 41.9996C84.73 39.0996 85.38 33.85 85.83 30.25C86.73 23 87.03 21.5 87.58 21.5C87.78 21.5 90.73 23.65 94.13 26.3ZM74.58 46.3996C74.58 46.8496 73.33 56.3496 72.33 63.7496C71.93 66.4996 71.28 71.5496 70.83 74.9996C69.98 81.7496 69.73 82.9996 69.13 82.9996C68.93 82.9996 65.93 80.7996 62.48 78.0996C43.68 63.5496 40.13 60.6996 40.13 60.3996C40.08 59.8996 40.88 59.5496 56.58 53.1496C61.68 51.0496 67.63 48.6496 69.83 47.6996C74.18 45.8996 74.58 45.7996 74.58 46.3996ZM44.93 75.5996C58.38 85.9496 68.18 93.5496 82.08 104.45C85.23 106.9 87.83 109.2 87.83 109.55C87.83 109.9 85.23 111.25 82.08 112.55C78.93 113.85 73.73 115.95 70.58 117.25C59.48 121.85 57.58 122.5 55.08 122.5C52.68 122.5 52.53 122.35 36.28 109.85C6.22995 86.7496 8.32995 88.7496 8.77995 83.4996C9.22995 77.8996 10.13 72.7496 10.73 72.1996C11.08 71.8996 13.38 70.7996 15.83 69.7996C18.33 68.7996 22.13 67.2496 24.33 66.2996C26.53 65.3496 28.83 64.5496 29.43 64.5496C30.18 64.4996 35.53 68.3496 44.93 75.5996Z" fill="#8000FF"/>
</svg>
