<svg width="240" height="241" viewBox="0 0 240 241" fill="none" xmlns="http://www.w3.org/2000/svg">
<path d="M113.613 1.07373C88.8625 2.72373 66.9125 10.7237 47.6125 25.0737C40.8625 30.1237 28.9625 42.0237 23.9125 48.7737C11.2125 65.8237 3.1625 85.9737 0.5625 107.024C-0.1875 113.474 -0.1875 128.074 0.5625 134.524C3.1625 155.724 11.3125 175.874 24.2125 193.174C28.8625 199.424 40.9625 211.524 47.2125 216.174C70.6125 233.674 98.8125 242.174 127.163 240.274C151.013 238.674 172.713 230.624 192.013 216.174C198.263 211.524 210.363 199.424 215.013 193.174C227.963 175.874 235.863 156.174 238.663 134.524C239.413 128.724 239.413 112.824 238.663 107.024C235.863 85.3737 227.963 65.6737 215.013 48.3737C210.163 41.9237 198.113 29.9237 191.613 25.0737C174.613 12.4737 153.913 4.12373 133.863 1.82373C128.563 1.22373 117.513 0.823727 113.613 1.07373ZM127.763 50.5237C133.363 53.2737 137.513 59.3737 137.963 65.4737C138.063 67.1237 136.913 83.4737 135.413 101.724C132.413 137.174 132.413 137.074 129.413 140.624C124.763 146.124 114.463 146.124 109.813 140.624C106.813 137.074 106.813 137.174 103.813 101.724C102.313 83.4737 101.163 67.1237 101.263 65.4737C101.513 61.7237 103.313 57.6737 105.863 54.8237C110.063 50.2237 113.813 48.6737 120.363 48.9237C124.113 49.0737 125.363 49.3237 127.763 50.5237ZM126.863 162.374C129.863 163.924 132.563 166.674 134.163 169.774C135.163 171.674 135.363 172.774 135.363 176.774C135.363 180.974 135.213 181.824 134.013 184.024C132.413 187.024 129.663 189.724 126.613 191.324C124.713 192.324 123.613 192.524 119.613 192.524C115.613 192.524 114.513 192.324 112.613 191.324C109.563 189.724 106.813 187.024 105.213 184.024C104.013 181.824 103.863 180.974 103.863 176.774C103.863 171.374 104.713 169.074 108.063 165.624C111.413 162.024 114.863 160.724 120.363 160.974C123.463 161.074 124.913 161.374 126.863 162.374Z" fill="#B061FF"/>
</svg>
