<svg width="158" height="200" viewBox="0 0 158 200" fill="none" xmlns="http://www.w3.org/2000/svg">
<path fill-rule="evenodd" clip-rule="evenodd" d="M88.0039 0H23C10.2975 0 0 10.2975 0 23V177C0 189.703 10.2975 200 23 200H117C129.703 200 140 189.703 140 177V51.9961L88.0039 0Z" fill="#FF1C1C"/>
<path fill-rule="evenodd" clip-rule="evenodd" d="M88 0V52H140.008L88 0ZM157.133 52H158V51.1328L157.133 52Z" fill="#FF6464"/>
<path d="M13.3026 153V109.364H31.3281C34.5952 109.364 37.4148 110.003 39.7869 111.281C42.1733 112.545 44.0128 114.314 45.3054 116.587C46.598 118.845 47.2443 121.473 47.2443 124.47C47.2443 127.482 46.5838 130.116 45.2628 132.375C43.956 134.619 42.0881 136.359 39.6591 137.595C37.2301 138.831 34.3466 139.449 31.0085 139.449H19.8864V131.139H29.0483C30.6392 131.139 31.9673 130.862 33.0327 130.308C34.1122 129.754 34.929 128.98 35.483 127.986C36.0369 126.977 36.3139 125.805 36.3139 124.47C36.3139 123.121 36.0369 121.956 35.483 120.976C34.929 119.982 34.1122 119.214 33.0327 118.675C31.9531 118.135 30.625 117.865 29.0483 117.865H23.8494V153H13.3026ZM68.5724 153H52.4432V109.364H68.5511C72.9972 109.364 76.8253 110.237 80.0355 111.984C83.2599 113.717 85.7457 116.217 87.4929 119.484C89.2401 122.737 90.1136 126.629 90.1136 131.161C90.1136 135.706 89.2401 139.612 87.4929 142.879C85.7599 146.146 83.2812 148.653 80.0568 150.401C76.8324 152.134 73.0043 153 68.5724 153ZM62.9901 144.009H68.1676C70.6108 144.009 72.6776 143.597 74.3679 142.773C76.0724 141.935 77.358 140.578 78.2244 138.703C79.1051 136.814 79.5455 134.3 79.5455 131.161C79.5455 128.021 79.1051 125.521 78.2244 123.661C77.3438 121.786 76.044 120.436 74.3253 119.612C72.6207 118.774 70.5185 118.355 68.0185 118.355H62.9901V144.009ZM96.2713 153V109.364H126.058V117.929H106.818V126.878H124.162V135.464H106.818V153H96.2713Z" fill="white"/>
</svg>
