<?xml version="1.0" encoding="utf-8"?>
<!-- Generator: Adobe Illustrator 27.0.0, SVG Export Plug-In . SVG Version: 6.00 Build 0)  -->
<svg version="1.1" id="Слой_1" xmlns="http://www.w3.org/2000/svg" xmlns:xlink="http://www.w3.org/1999/xlink" x="0px" y="0px"
	 viewBox="0 0 342 29" style="enable-background:new 0 0 342 29;" xml:space="preserve">
<style type="text/css">
	.st0{fill:#8000FF;}
	.st1{fill:#1969FE;}
	.st2{fill:#ED3E3E;}
</style>
<path class="st0" d="M5.8,0.8c-4.3,1.3-6.6,5-5.5,8.9c0.9,3.1,2.8,4.8,6.7,5.8c4.6,1.3,5.8,2.2,5.8,4c0,2.2-1.6,3.5-4.2,3.5
	c-1.2,0-2.7-0.4-3.2-0.8c-1.1-0.7-1.2-0.7-3.1,0.7l-2,1.4l1.2,1.1c3.7,3.4,10.7,3.4,14.2-0.1c2.1-2,2.9-5.1,2.2-7.7
	c-1-3.7-2.8-5.1-7.6-6.1c-1.5-0.3-3.2-0.9-3.8-1.2C5,9.4,4.8,7.1,6.1,5.9c1.2-1.1,4.8-1.1,6.6-0.1c1.4,0.8,1.4,0.8,3.2-0.6l1.9-1.4
	l-1.5-1.3C13.7,0.2,9.9-0.5,5.8,0.8z"/>
<path class="st0" d="M23.7,0.4c0,0.2,2.5,3.6,5.5,7.6l5.5,7.3v6.4v6.5h2.5h2.5v-6.5V15l5.4-6.8c3-3.8,5.5-7.2,5.8-7.5
	c0.2-0.4-0.4-0.6-2.8-0.6L45,0.1l-2.4,3.4c-1.3,1.8-3,4.1-3.8,5.1l-1.4,1.7l-4.1-5.1l-4.1-5.1h-2.7C25,0.1,23.7,0.2,23.7,0.4z"/>
<path class="st0" d="M99,0.8c-4.2,1.2-6.7,3.3-8.8,7.3c-1.7,3.2-1.7,9.3-0.1,12.3c3,5.6,10.9,9,16.7,7.1c9.4-3.2,12.8-15.5,6.2-22.6
	c-1.9-2-4.7-3.6-7.3-4.2C102.8,0,101.6,0,99,0.8z M106.4,5.8c4.9,2.1,6.9,9.3,3.7,13.6c-5.5,7.1-16.5,3.4-16.5-5.5
	C93.5,7.6,100.4,3.3,106.4,5.8z"/>
<path class="st0" d="M124.7,2.6v2.5h7.7c8.6,0,9.4,0.3,9.4,3.4c0,2.8-1,3.1-9.2,3.3l-7.5,0.2l-0.2,8.1l-0.1,8.1h2.5h2.5v-5.8v-5.8
	h4.9c5.5,0,7.6-0.5,9.7-2.4c4.1-3.9,2.2-12.1-3.2-13.6c-0.9-0.3-5-0.5-9.1-0.5h-7.4V2.6z"/>
<path class="st0" d="M160.6,0.6c-2.7,0.8-4.8,2.5-5.6,4.5c-1,2.5-1,3.4,0,6c1,2.3,3.5,4,7.5,5c3.4,0.8,4.8,1.8,4.8,3.4
	c0,3.2-4,4.6-7.6,2.9c-1.4-0.8-1.6-0.7-3.2,0.6c-1,0.8-1.8,1.5-1.8,1.8c0,0.2,0.9,1,2.1,1.8c1.8,1.2,2.6,1.4,5.6,1.4
	c6,0,9.2-2.5,9.7-7.4c0.3-3.1-0.9-6.1-3.1-7.4c-0.8-0.5-3.2-1.3-5.2-1.8c-2.5-0.6-3.8-1.2-4.1-1.8c-0.6-1.1-0.2-2.6,0.8-3.7
	c1-1,4.5-1,6.4,0c1.6,0.8,2.5,0.5,4.1-1.2l1-1.1l-1.5-1.1C168,0.3,163.9-0.4,160.6,0.6z"/>
<path class="st0" d="M180.7,14.1v14l2.5-1.9l2.5-1.9V12.2V0.1h-2.5h-2.5V14.1z"/>
<path class="st0" d="M199.7,0.9c-4,1.2-6.3,4.8-5.5,8.4c0.8,3.8,2.5,5.3,7.1,6.4c4,1,5.4,2,5.4,3.9c0,2.2-1.6,3.5-4.2,3.5
	c-1.1,0-2.6-0.4-3.2-0.8c-1.1-0.7-1.2-0.7-3.1,0.7l-2,1.5l1.1,1c3.4,3.2,10.4,3.4,13.9,0.2c1.8-1.5,3.1-5,2.7-7
	c-0.8-4.3-2.9-6.2-7.8-7.2c-1.5-0.3-3.2-0.9-3.9-1.2c-1.6-0.9-1.6-3.4-0.1-4.4c1.4-1.1,4.7-1,6.4,0c1.3,0.8,1.4,0.8,3.2-0.6l1.8-1.4
	l-1.5-1.4C207.7,0.2,203.9-0.4,199.7,0.9z"/>
<path class="st1" d="M228.2,0.4c0,0.2,2.5,3.7,5.5,7.6l5.5,7.3v6.4v6.4h2.2h2.2v-6.3v-6.3l5.5-7c3-3.8,5.6-7.2,5.8-7.7
	c0.2-0.6-0.2-0.8-2.6-0.8h-2.9l-3.7,5c-2.1,2.8-3.9,5-4,5c-0.2,0-2.1-2.3-4.2-5l-3.9-5h-2.7C229.4,0.1,228.2,0.2,228.2,0.4z"/>
<path class="st1" d="M260.1,13.8c-3.8,7.5-6.8,13.9-6.8,14s1.3,0.2,2.9,0.2h2.9l4-8.5c2.1-4.7,4-8.5,4.2-8.5s2.1,3.8,4.2,8.5l4,8.5
	h2.9h2.9l-7-14c-3.9-7.7-7-14-7.1-14C267,0.1,263.9,6.3,260.1,13.8z"/>
<path class="st1" d="M288.2,2.6v2.5h7.4c6.6,0,7.6,0.1,8.2,0.9c1.2,1.3,1.1,3.7-0.3,5c-1.1,1-1.6,1.1-8.2,1.1h-7.1v2.2v2.2h5.2h5.2
	l3.1,5.8l3.1,5.8h2.4c1.4,0,2.5-0.1,2.5-0.3c0-0.2-1.2-2.6-2.8-5.4c-1.5-2.8-2.8-5.1-2.8-5.4c0-0.2,0.8-0.9,1.7-1.4
	c2.3-1.3,3.4-3.6,3.4-7.1c0-3.7-1.2-5.9-4.1-7.4c-2-1-2.9-1.1-9.6-1.1h-7.4V2.6z"/>
<path class="st1" d="M318.2,2.5V5l6.4,0.2c6.2,0.1,6.5,0.2,8.2,1.5c5,3.7,5,10.8,0.2,14.6c-1.7,1.4-2.1,1.4-8.2,1.7l-6.4,0.2
	l-0.1,2.5l-0.1,2.4l6.4-0.2c7.2-0.2,9.5-1,12.9-4.3c5.4-5.4,5.1-14.3-0.6-19.6c-3.3-3.1-5-3.6-12.2-3.9L318.2,0V2.5z"/>
<path class="st2" d="M71.6,3C69,5.6,68.8,6.1,70,7.1c0.7,0.5,1,0.4,2-0.5l1.2-1.2v7v6.9l-6.9-6.9c-6.1-6-7.1-6.9-7.8-6.4
	c-0.7,0.6-0.8,2.3-0.8,11.4v10.7h1.5h1.5v-8.6v-8.6l6.7,6.6c4.8,4.8,6.9,6.6,7.5,6.3c0.7-0.2,0.8-1.4,0.8-9.4v-9L77,6.6
	c1,0.9,1.3,1,2,0.5c0.4-0.3,0.8-0.9,0.8-1.2c0-0.7-4.6-5.3-5.3-5.3C74.2,0.6,72.9,1.7,71.6,3z"/>
</svg>
