<svg width="874" height="1037" viewBox="0 0 874 1037" fill="none" xmlns="http://www.w3.org/2000/svg">
<g clip-path="url(#clip0_954_3)">
<path d="M559.44 259.882C553 123.422 437.71 15.5619 301.78 18.0419C166.78 20.5119 55.9302 131.012 53.1602 266.662" stroke="#D1B4F7" stroke-width="36" stroke-miterlimit="10"/>
<path d="M522.702 1036.02C522.572 906.943 522.442 777.853 522.302 648.773C457.292 587.703 392.282 526.632 327.262 465.562" stroke="#D5FF40" stroke-width="36" stroke-miterlimit="10"/>
<path d="M693.251 476.461C636.271 533.901 579.281 591.341 522.301 648.771" stroke="#D5FF40" stroke-width="36" stroke-miterlimit="10"/>
<path d="M17.9805 694.573C24.4205 831.033 139.71 938.893 275.64 936.413C410.64 933.943 521.49 823.443 524.26 687.793" stroke="#D1B4F7" stroke-width="36" stroke-miterlimit="10"/>
<path d="M50.9102 336.723C221.2 313.643 382.17 374.383 464.52 497.193C514.61 571.903 522.8 650.473 523.28 696.083" stroke="#D1B4F7" stroke-width="36" stroke-miterlimit="10"/>
</g>
<defs>
<clipPath id="clip0_954_3">
<rect width="873.6" height="1036.04" fill="white"/>
</clipPath>
</defs>
</svg>
