<svg width="48" height="48" viewBox="0 0 48 48" fill="none" xmlns="http://www.w3.org/2000/svg">
<path d="M13.75 38V10H25.15C27.35 10 29.2583 10.7 30.875 12.1C32.4917 13.5 33.3 15.2667 33.3 17.4C33.3 18.6667 32.95 19.8333 32.25 20.9C31.55 21.9667 30.6167 22.7833 29.45 23.35V23.65C30.8833 24.1167 32.0417 24.95 32.925 26.15C33.8083 27.35 34.25 28.7 34.25 30.2C34.25 32.4667 33.375 34.3333 31.625 35.8C29.875 37.2667 27.8333 38 25.5 38H13.75ZM18.05 34.2H25.25C26.5167 34.2 27.6167 33.7833 28.55 32.95C29.4833 32.1167 29.95 31.0667 29.95 29.8C29.95 28.5667 29.4833 27.5333 28.55 26.7C27.6167 25.8667 26.5167 25.45 25.25 25.45H18.05V34.2ZM18.05 21.85H24.85C26.0167 21.85 27.025 21.4667 27.875 20.7C28.725 19.9333 29.15 18.9667 29.15 17.8C29.15 16.6333 28.725 15.6583 27.875 14.875C27.025 14.0917 26.0167 13.7 24.85 13.7H18.05V21.85Z" fill="#8000FF"/>
</svg>
