<svg width="35" height="42" viewBox="0 0 35 42" fill="none" xmlns="http://www.w3.org/2000/svg">
<rect x="10" y="4" width="25" height="4" rx="2" fill="#8000FF"/>
<rect x="10" y="20" width="25" height="4" rx="2" fill="#8000FF"/>
<rect x="10" y="36" width="25" height="4" rx="2" fill="#8000FF"/>
<path d="M3.89915 2.72727V10H2.14489V4.3679H2.10227L0.475852 5.36222V3.84233L2.26918 2.72727H3.89915Z" fill="#8000FF"/>
<path d="M0.536222 26V24.7358L3.18892 22.4134C3.38778 22.2334 3.55705 22.0689 3.69673 21.9197C3.83641 21.7682 3.94295 21.6167 4.01634 21.4652C4.08973 21.3113 4.12642 21.1444 4.12642 20.9645C4.12642 20.7633 4.08262 20.5916 3.99503 20.4496C3.90743 20.3052 3.7867 20.1939 3.63281 20.1158C3.47893 20.0376 3.30256 19.9986 3.10369 19.9986C2.90246 19.9986 2.72609 20.04 2.57457 20.1229C2.42306 20.2034 2.30469 20.3205 2.21946 20.4744C2.1366 20.6283 2.09517 20.8153 2.09517 21.0355H0.429688C0.429688 20.5407 0.540956 20.1134 0.763494 19.7536C0.986032 19.3937 1.29853 19.1167 1.70099 18.9226C2.10582 18.7261 2.57576 18.6278 3.1108 18.6278C3.66241 18.6278 4.14181 18.7202 4.54901 18.9048C4.9562 19.0895 5.27107 19.3475 5.49361 19.679C5.71851 20.008 5.83097 20.3904 5.83097 20.826C5.83097 21.103 5.77533 21.3776 5.66406 21.6499C5.55279 21.9221 5.35275 22.2228 5.06392 22.5518C4.77746 22.8809 4.37027 23.2751 3.84233 23.7344L2.9723 24.5369V24.5831H5.91974V26H0.536222Z" fill="#8000FF"/>
<path d="M3.30256 42.0994C2.74858 42.0994 2.25734 42.0047 1.82884 41.8153C1.4027 41.6236 1.06652 41.3596 0.820312 41.0234C0.5741 40.6873 0.448627 40.3002 0.443892 39.8622H2.21236C2.21946 40.0208 2.27036 40.1617 2.36506 40.2848C2.45975 40.4055 2.58878 40.5002 2.75213 40.5689C2.91548 40.6375 3.10133 40.6719 3.30966 40.6719C3.51799 40.6719 3.70147 40.6352 3.86009 40.5618C4.02107 40.486 4.14654 40.383 4.23651 40.2528C4.32647 40.1203 4.37027 39.9687 4.3679 39.7983C4.37027 39.6278 4.32173 39.4763 4.2223 39.3438C4.12287 39.2112 3.98201 39.1082 3.79972 39.0348C3.61979 38.9614 3.40672 38.9247 3.16051 38.9247H2.45384V37.6747H3.16051C3.37595 37.6747 3.56534 37.6392 3.72869 37.5682C3.89441 37.4972 4.02344 37.3977 4.11577 37.2699C4.2081 37.1397 4.25308 36.9905 4.25071 36.8224C4.25308 36.6591 4.21402 36.5159 4.13352 36.3928C4.0554 36.2673 3.94531 36.1702 3.80327 36.1016C3.66359 36.0329 3.50142 35.9986 3.31676 35.9986C3.12263 35.9986 2.94626 36.0329 2.78764 36.1016C2.63139 36.1702 2.5071 36.2673 2.41477 36.3928C2.32244 36.5182 2.27391 36.6638 2.26918 36.8295H0.589489C0.594224 36.3963 0.714962 36.0152 0.951705 35.6861C1.18845 35.3546 1.51042 35.0954 1.91761 34.9084C2.32718 34.7214 2.79356 34.6278 3.31676 34.6278C3.83759 34.6278 4.29569 34.719 4.69105 34.9013C5.08641 35.0836 5.39418 35.3321 5.61435 35.647C5.83452 35.9595 5.9446 36.3134 5.9446 36.7088C5.94697 37.1184 5.81321 37.4557 5.54332 37.7209C5.2758 37.986 4.93134 38.1494 4.50994 38.2109V38.2678C5.07339 38.334 5.49834 38.5163 5.7848 38.8146C6.07363 39.1129 6.21686 39.4858 6.21449 39.9332C6.21449 40.3546 6.0902 40.7287 5.84162 41.0554C5.59541 41.3797 5.25213 41.6354 4.81179 41.8224C4.37382 42.0071 3.87074 42.0994 3.30256 42.0994Z" fill="#8000FF"/>
</svg>
