<svg width="48" height="48" viewBox="0 0 48 48" fill="none" xmlns="http://www.w3.org/2000/svg">
<path d="M25.2 39.9992C22.6 39.9992 20.2333 39.3076 18.1 37.9242C15.9667 36.5409 14.4167 34.6826 13.45 32.3492L16.9 30.8992C17.5667 32.4992 18.65 33.7826 20.15 34.7492C21.65 35.7159 23.3333 36.1992 25.2 36.1992C26.9333 36.1992 28.3167 35.7492 29.35 34.8492C30.3833 33.9492 30.9 32.7326 30.9 31.1992C30.9 30.4326 30.7417 29.6242 30.425 28.7742C30.1083 27.9242 29.6667 27.1659 29.1 26.4992H33.3C33.7667 27.2659 34.1167 28.0326 34.35 28.7992C34.5833 29.5659 34.7 30.3659 34.7 31.1992C34.7 33.7992 33.8167 35.9159 32.05 37.5492C30.2833 39.1826 28 39.9992 25.2 39.9992ZM4 23.4992V20.4992H44V23.4992H4ZM23.7 7.69922C25.9 7.69922 27.85 8.21589 29.55 9.24922C31.25 10.2826 32.5 11.7159 33.3 13.5492L29.85 15.0992C29.3833 13.9659 28.6083 13.0826 27.525 12.4492C26.4417 11.8159 25.1667 11.4992 23.7 11.4992C22.0667 11.4992 20.75 11.8992 19.75 12.6992C18.75 13.4992 18.25 14.5992 18.25 15.9992C18.25 16.2659 18.2667 16.5159 18.3 16.7492C18.3333 16.9826 18.3833 17.2326 18.45 17.4992H14.75C14.6833 17.2326 14.6333 16.9659 14.6 16.6992C14.5667 16.4326 14.55 16.1659 14.55 15.8992C14.55 13.4659 15.4 11.4909 17.1 9.97422C18.8 8.45755 21 7.69922 23.7 7.69922Z" fill="#8000FF"/>
</svg>
