<svg width="48" height="48" viewBox="0 0 48 48" fill="none" xmlns="http://www.w3.org/2000/svg">
<path d="M14.5 40V13H3V8H31V13H19.5V40H14.5Z" fill="#8000FF"/>
<path d="M34.9393 39.0607C35.5251 39.6464 36.4749 39.6464 37.0607 39.0607L46.6066 29.5147C47.1924 28.9289 47.1924 27.9792 46.6066 27.3934C46.0208 26.8076 45.0711 26.8076 44.4853 27.3934L36 35.8787L27.5147 27.3934C26.9289 26.8076 25.9792 26.8076 25.3934 27.3934C24.8076 27.9792 24.8076 28.9289 25.3934 29.5147L34.9393 39.0607ZM34.5 8L34.5 38L37.5 38L37.5 8L34.5 8Z" fill="#8000FF"/>
</svg>
