<svg width="37" height="37" viewBox="0 0 37 37" fill="none" xmlns="http://www.w3.org/2000/svg">
<path d="M3 34.0016H5.2L27.35 11.8516L25.15 9.65156L3 31.8016V34.0016ZM33.7 9.70156L27.3 3.30156L29.4 1.20156C29.9667 0.634896 30.6667 0.351562 31.5 0.351562C32.3333 0.351562 33.0333 0.634896 33.6 1.20156L35.8 3.40156C36.3667 3.96823 36.65 4.66823 36.65 5.50156C36.65 6.3349 36.3667 7.0349 35.8 7.60156L33.7 9.70156ZM31.6 11.8016L6.4 37.0016H0V30.6016L25.2 5.40156L31.6 11.8016ZM26.25 10.7516L25.15 9.65156L27.35 11.8516L26.25 10.7516Z" fill="#C5AAFF"/>
</svg>
