<svg width="24" height="24" viewBox="0 0 24 24" fill="none" xmlns="http://www.w3.org/2000/svg">
<path d="M11 4H4C3.46957 4 2.96086 4.21071 2.58579 4.58579C2.21071 4.96086 2 5.46957 2 6V20C2 20.5304 2.21071 21.0391 2.58579 21.4142C2.96086 21.7893 3.46957 22 4 22H18C18.5304 22 19.0391 21.7893 19.4142 21.4142C19.7893 21.0391 20 20.5304 20 20V13" stroke="#8000FF" stroke-width="2" stroke-linecap="round" stroke-linejoin="round"/>
<path d="M18.4098 2.61598C18.8042 2.22158 19.3391 2 19.8969 2C20.4547 2 20.9896 2.22158 21.384 2.61598C21.7784 3.01039 22 3.54532 22 4.1031C22 4.66087 21.7784 5.1958 21.384 5.59021L11.9656 15.0086L6 18L8.99141 12.0344L18.4098 2.61598Z" stroke="#8000FF" stroke-width="2" stroke-linecap="round" stroke-linejoin="round"/>
<rect x="19.5293" y="1.84766" width="3" height="3.95628" transform="rotate(45 19.5293 1.84766)" fill="#8000FF"/>
</svg>
