<svg width="171" height="235" viewBox="0 0 171 235" fill="none" xmlns="http://www.w3.org/2000/svg">
<path d="M60.0054 21.843C55.1554 23.543 51.7554 28.393 50.8554 34.643C50.3554 38.293 49.6054 39.693 47.4554 41.093C46.1554 41.943 44.7054 42.043 28.1554 42.043C16.6554 42.043 9.45541 42.243 8.05541 42.593C6.70541 42.943 4.90541 43.993 3.55541 45.143C-2.04459 50.043 -0.844594 58.893 5.85541 62.243L8.50541 63.543H85.3054H162.105L164.755 62.243C171.105 59.043 172.505 51.293 167.705 45.843C164.505 42.193 163.655 42.043 142.605 42.043C125.905 42.043 124.455 41.993 123.155 41.093C121.005 39.693 120.255 38.293 119.755 34.643C118.855 28.243 115.405 23.543 110.405 21.843C107.155 20.693 63.1554 20.743 60.0054 21.843Z" fill="black"/>
<path d="M17.4047 85.5422C13.4047 87.1922 10.8047 91.0922 10.8047 95.5922C10.8047 97.0922 12.7047 120.992 15.0547 148.792C19.7047 204.292 19.5547 203.242 23.6047 211.042C29.5547 222.592 40.1547 230.642 52.9047 233.292C58.1047 234.392 112.605 234.392 117.805 233.292C127.755 231.192 137.105 225.292 143.105 217.392C146.005 213.592 149.505 206.342 150.555 202.042C151.505 198.042 159.905 99.6422 159.705 94.9422C159.555 92.1422 159.255 91.2422 157.955 89.4422C157.105 88.2422 155.455 86.7922 154.255 86.1922L152.155 85.0422L85.3547 85.0922C45.8547 85.0922 18.1047 85.2922 17.4047 85.5422Z" fill="black"/>
<rect x="65.4443" y="129.375" width="70.4558" height="15.6568" transform="rotate(45 65.4443 129.375)" fill="white"/>
<rect x="115.265" y="140.445" width="70.4558" height="15.6568" transform="rotate(135 115.265 140.445)" fill="white"/>
</svg>
