<svg width="262" height="216" viewBox="0 0 262 216" fill="none" xmlns="http://www.w3.org/2000/svg">
<path d="M63.83 67.1994C60.73 68.1994 55.83 70.1494 52.83 71.4994C51.68 72.0494 50.88 72.3494 38.83 77.2494C33.88 79.2494 27.58 81.8494 24.83 82.9994C22.08 84.1494 18.68 85.4994 17.28 86.0494C12.48 87.8994 8.42995 92.4494 7.17995 97.4994C6.82995 98.7494 6.22995 102.549 5.77995 105.999C4.97995 112.499 3.97995 119.749 2.82995 128.249C2.42995 130.999 1.77995 135.849 1.37995 138.999C0.97995 142.149 0.42995 146.099 0.17995 147.799C-0.62005 153.449 1.27995 158.899 5.22995 162.649C6.07995 163.399 7.97995 164.999 9.52995 166.199C11.08 167.349 19.88 174.149 29.08 181.249C38.28 188.399 47.13 194.899 48.78 195.699C51.33 196.999 52.18 197.199 55.78 197.149C59.68 197.099 60.53 196.899 65.83 194.499C66.38 194.249 69.38 192.999 72.48 191.749C75.53 190.499 80.63 188.449 83.73 187.199C86.78 185.899 90.58 184.349 92.08 183.749C110.98 176.049 111.08 175.999 113.53 173.199C116.78 169.549 117.58 166.799 119.28 153.249C120.03 147.599 120.73 142.499 122.33 130.749C124.98 111.599 124.98 110.249 122.73 105.599C121.53 103.099 118.88 100.449 113.33 96.1994C112.23 95.3494 103.93 88.9494 94.83 81.9494C85.78 74.9494 77.73 68.8494 77.03 68.3994C75.53 67.4494 70.28 65.9994 68.53 65.9994C67.88 66.0494 65.78 66.5494 63.83 67.1994ZM72.33 75.6494C75.08 77.2494 79.08 80.6994 79.08 81.4494C79.03 81.8994 78.83 83.7994 78.58 85.7494C78.13 88.7994 76.58 100.999 76.58 101.399C76.58 101.599 72.93 103.149 65.08 106.299C61.38 107.799 57.88 109.249 57.33 109.499C56.78 109.749 54.88 110.549 53.08 111.249C51.28 111.949 49.38 112.749 48.83 112.999C48.28 113.249 45.38 114.449 42.33 115.699C36.48 118.049 28.98 121.099 20.83 124.499C13.48 127.549 12.13 127.999 11.83 127.499C11.68 127.249 11.88 124.849 12.28 122.149C12.73 119.449 13.53 113.649 14.08 109.249C15.33 99.5994 15.78 97.8994 17.33 96.2494C18.08 95.3994 21.88 93.5494 27.68 91.1994C32.68 89.1494 37.28 87.2494 37.83 86.9994C38.38 86.7494 40.28 85.9494 42.08 85.2494C43.88 84.5494 45.78 83.7494 46.33 83.4994C46.88 83.2494 50.48 81.7494 54.33 80.1994C58.18 78.6494 62.58 76.8494 64.08 76.2494C67.13 74.9494 70.78 74.6994 72.33 75.6494ZM94.13 92.2994C102.48 98.7494 102.73 98.9494 107.38 102.599C109.58 104.349 112.13 106.299 113.03 106.999C115.68 109.049 116.18 111.399 115.33 117.849C114.93 120.799 114.28 125.949 113.88 129.249C113.43 132.549 112.98 135.799 112.83 136.499C112.68 137.199 112.23 140.449 111.78 143.749C109.28 163.449 108.98 164.999 107.53 166.949C106.53 168.299 105.38 168.949 99.73 171.299L98.13 171.999L89.03 164.849C84.03 160.949 79.48 157.399 78.93 156.949C78.08 156.249 77.98 155.799 78.28 153.699C78.78 150.499 79.83 142.299 80.78 134.499C81.23 131.049 81.68 127.549 81.83 126.749C81.98 125.899 82.43 122.549 82.88 119.249C83.28 115.949 83.93 110.899 84.33 107.999C84.73 105.099 85.38 99.8494 85.83 96.2494C86.73 88.9994 87.03 87.4994 87.58 87.4994C87.78 87.4994 90.73 89.6494 94.13 92.2994ZM74.58 112.399C74.58 112.849 73.33 122.349 72.33 129.749C71.93 132.499 71.28 137.549 70.83 140.999C69.98 147.749 69.73 148.999 69.13 148.999C68.93 148.999 65.93 146.799 62.48 144.099C43.68 129.549 40.13 126.699 40.13 126.399C40.08 125.899 40.88 125.549 56.58 119.149C61.68 117.049 67.63 114.649 69.83 113.699C74.18 111.899 74.58 111.799 74.58 112.399ZM44.93 141.599C58.38 151.949 68.18 159.549 82.08 170.449C85.23 172.899 87.83 175.199 87.83 175.549C87.83 175.899 85.23 177.249 82.08 178.549C78.93 179.849 73.73 181.949 70.58 183.249C59.48 187.849 57.58 188.499 55.08 188.499C52.68 188.499 52.53 188.349 36.28 175.849C6.22995 152.749 8.32995 154.749 8.77995 149.499C9.22995 143.899 10.13 138.749 10.73 138.199C11.08 137.899 13.38 136.799 15.83 135.799C18.33 134.799 22.13 133.249 24.33 132.299C26.53 131.349 28.83 130.549 29.43 130.549C30.18 130.499 35.53 134.349 44.93 141.599Z" fill="white"/>
<path d="M197.1 197H183.24L172.26 112.04L161.1 197H147.24L165.96 73.88H172.62C175.38 73.88 177.12 74.6 177.84 76.04C178.68 77.36 179.22 78.86 179.46 80.54L197.1 197ZM233.191 73.88C235.111 73.88 236.431 74.48 237.151 75.68C237.871 76.76 238.231 77.78 238.231 78.74V197H229.231C227.791 197 226.831 196.7 226.351 196.1C225.991 195.5 225.751 194.9 225.631 194.3V73.88H233.191Z" fill="white"/>
<rect x="167" y="163" width="22" height="11" rx="5" fill="white"/>
</svg>
