<svg width="49" height="36" viewBox="0 0 49 36" fill="none" xmlns="http://www.w3.org/2000/svg">
<path d="M20.0455 12.7125V10.0125C18.8205 9.4875 17.5676 9.09375 16.2869 8.83125C15.0063 8.56875 13.6606 8.4375 12.25 8.4375C11.2848 8.4375 10.3383 8.5125 9.41023 8.6625C8.4822 8.8125 7.57273 9 6.68182 9.225V11.7C7.57273 11.3625 8.47292 11.1094 9.38239 10.9406C10.2919 10.7719 11.2477 10.6875 12.25 10.6875C13.6606 10.6875 15.0155 10.8656 16.3148 11.2219C17.614 11.5781 18.8576 12.075 20.0455 12.7125ZM20.0455 25.0875V22.3312C18.8205 21.825 17.5676 21.4453 16.2869 21.1922C15.0063 20.9391 13.6606 20.8125 12.25 20.8125C11.2848 20.8125 10.3383 20.8875 9.41023 21.0375C8.4822 21.1875 7.57273 21.375 6.68182 21.6V24.075C7.57273 23.7375 8.47292 23.4844 9.38239 23.3156C10.2919 23.1469 11.2477 23.0625 12.25 23.0625C13.6606 23.0625 15.0155 23.2312 16.3148 23.5687C17.614 23.9062 18.8576 24.4125 20.0455 25.0875ZM20.0455 18.9V16.2C18.8205 15.675 17.5676 15.2812 16.2869 15.0187C15.0063 14.7562 13.6606 14.625 12.25 14.625C11.2848 14.625 10.3383 14.7 9.41023 14.85C8.4822 15 7.57273 15.1875 6.68182 15.4125V17.8875C7.57273 17.55 8.47292 17.2969 9.38239 17.1281C10.2919 16.9594 11.2477 16.875 12.25 16.875C13.6606 16.875 15.0155 17.0531 16.3148 17.4094C17.614 17.7656 18.8576 18.2625 20.0455 18.9ZM37.4182 28.125C35.4297 28.125 33.4942 28.3594 31.6115 28.8281C29.7288 29.2969 27.878 30 26.0591 30.9375V6.91875C27.7295 5.79375 29.5414 4.92187 31.4947 4.30312C33.4479 3.68437 35.4224 3.375 37.4182 3.375C38.8288 3.375 40.2116 3.55312 41.5665 3.90937C42.9214 4.26562 44.2856 4.70625 45.6591 5.23125V29.6437C44.5083 29.1187 43.1998 28.7344 41.7335 28.4906C40.2672 28.2469 38.8288 28.125 37.4182 28.125ZM22.7182 30.9375C20.8621 30 19.0432 29.2969 17.2614 28.8281C15.4795 28.3594 13.5864 28.125 11.5818 28.125C10.1712 28.125 8.71421 28.2375 7.2108 28.4625C5.70739 28.6875 4.41743 28.9875 3.34091 29.3625V5.23125C4.60303 4.59375 5.93609 4.125 7.34009 3.825C8.74413 3.525 10.158 3.375 11.5818 3.375C13.5864 3.375 15.5259 3.68437 17.4006 4.30312C19.2752 4.92187 21.0477 5.79375 22.7182 6.91875V30.9375ZM24.3886 36C26.2818 34.575 28.342 33.4781 30.5693 32.7094C32.7966 31.9406 35.0795 31.5562 37.4182 31.5562C38.7745 31.5562 40.1065 31.725 41.4144 32.0625C42.7222 32.4 44.0258 32.8125 45.325 33.3C46.1825 33.7125 47.0094 33.6562 47.8056 33.1312C48.6019 32.6062 49 31.8562 49 30.8812V4.8375C49 4.275 48.8701 3.75937 48.6102 3.29062C48.3504 2.82187 47.9606 2.45625 47.4409 2.19375C45.8818 1.44375 44.2597 0.890625 42.5746 0.534375C40.8895 0.178125 39.1707 0 37.4182 0C35.0795 0 32.8059 0.31875 30.5972 0.95625C28.3884 1.59375 26.3189 2.56875 24.3886 3.88125C22.4955 2.56875 20.4631 1.59375 18.2915 0.95625C16.1199 0.31875 13.8833 0 11.5818 0C9.84202 0 8.13567 0.178125 6.46277 0.534375C4.78986 0.890625 3.17386 1.44375 1.61477 2.19375C1.09508 2.45625 0.696024 2.82187 0.417614 3.29062C0.139205 3.75937 8.34465e-07 4.275 8.34465e-07 4.8375V30.8812C8.34465e-07 31.9273 0.417614 32.7232 1.25284 33.2689C2.08807 33.8146 2.91402 33.825 3.73068 33.3C4.9928 32.775 6.27779 32.3531 7.58565 32.0344C8.89346 31.7156 10.2255 31.5562 11.5818 31.5562C13.9205 31.5562 16.1663 31.95 18.3193 32.7375C20.4723 33.525 22.4955 34.6125 24.3886 36Z" fill="white"/>
</svg>
